# xmcd
#
# Track frame offsets: 
#        150
#        18172
#        32590
#        43160
#        50880
#        64982
#        80520
#        100292
#        108632
#        122880
#        132940
#        144042
#
# Disc length: 2113 seconds
#
# Revision: 3
# Processed by: cddbd v1.5.2PL0 Copyright (c) Steve Scherf et al.
# Submitted via: ExactAudioCopy v0.99pb5
#
DISCID=a8083f0c
DTITLE=Marty Robbins - Gunfighter Ballads and Trail Songs
DYEAR=1959
DGENRE=Country
TTITLE0=Big Iron
TTITLE1=Cool Water
TTITLE2=Billy the Kid
TTITLE3=A Hundred and Sixty Acres
TTITLE4=They're Hanging Me Tonight
TTITLE5=The Strawberry Roan
TTITLE6=El Paso
TTITLE7=In the Valley
TTITLE8=The Master's Call
TTITLE9=Running Gun
TTITLE10=Little Green Valley
TTITLE11=Utah Carol
EXTD=YEAR: 1959
EXTT0=
EXTT1=
EXTT2=
EXTT3=
EXTT4=
EXTT5=
EXTT6=
EXTT7=
EXTT8=
EXTT9=
EXTT10=
EXTT11=
PLAYORDER=
